HIERARCHY
ROOT Hips
{
	OFFSET -3.958830 18.904000 13.208200
	CHANNELS 6 Xposition Yposition Zposition Zrotation Yrotation Xrotation 
	JOINT LHipJoint
	{
		OFFSET 0.000000 0.000000 0.000000
		CHANNELS 3 Zrotation Yrotation Xrotation
		JOINT LeftUpLeg
		{
			OFFSET 1.800000 -1.400000 0.085000
			CHANNELS 3 Zrotation Yrotation Xrotation
			JOINT LeftLeg
			{
				OFFSET 2.215000 -6.000000 0.000000
				CHANNELS 3 Zrotation Yrotation Xrotation
				JOINT LeftFoot
				{
					OFFSET 2.500000 -6.900000 0.000000
					CHANNELS 3 Zrotation Yrotation Xrotation
					JOINT LeftToeBase
					{
						OFFSET 0.200000 -0.500000 1.950000
						CHANNELS 3 Zrotation Yrotation Xrotation
						End Site
						{
							OFFSET 0.000000 0.000000 0.000000
						}
					}
				}
			}
		}
	}
	JOINT RHipJoint
	{
		OFFSET 0.000000 0.000000 0.000000
		CHANNELS 3 Zrotation Yrotation Xrotation
		JOINT RightUpLeg
		{
			OFFSET -1.800000 -1.400000 0.085000
			CHANNELS 3 Zrotation Yrotation Xrotation
			JOINT RightLeg
			{
				OFFSET -2.215000 -6.000000 0.000000
				CHANNELS 3 Zrotation Yrotation Xrotation
				JOINT RightFoot
				{
					OFFSET -2.500000 -6.900000 0.000000
					CHANNELS 3 Zrotation Yrotation Xrotation
					JOINT RightToeBase
					{
						OFFSET -0.200000 -0.500000 1.950000
						CHANNELS 3 Zrotation Yrotation Xrotation
						End Site
						{
							OFFSET 0.000000 0.000000 0.000000
						}
					}
				}
			}
		}
	}
	JOINT LowerBack
	{
		OFFSET 0.000000 0.000000 0.000000
		CHANNELS 3 Zrotation Yrotation Xrotation
		JOINT Spine
		{
			OFFSET -0.087000 1.940000 -0.288900
			CHANNELS 3 Zrotation Yrotation Xrotation
			JOINT Spine1
			{
				OFFSET 0.000000 1.950000 0.060000
				CHANNELS 3 Zrotation Yrotation Xrotation
				JOINT Neck
				{
					OFFSET 0.000000 0.000000 0.000000
					CHANNELS 3 Zrotation Yrotation Xrotation
					JOINT Neck1
					{
						OFFSET 0.000000 1.600000 0.340000
						CHANNELS 3 Zrotation Yrotation Xrotation
						JOINT Head
						{
							OFFSET 0.000000 1.667000 -0.240000
							CHANNELS 3 Zrotation Yrotation Xrotation
							End Site
							{
								OFFSET 0.000000 0.000000 0.000000
							}
						}
					}
				}
				JOINT LeftShoulder
				{
					OFFSET 0.000000 0.000000 0.000000
					CHANNELS 3 Zrotation Yrotation Xrotation
					JOINT LeftArm
					{
						OFFSET 2.700000 1.550000 -0.730000
						CHANNELS 3 Zrotation Yrotation Xrotation
						JOINT LeftForeArm
						{
							OFFSET 5.450000 0.000000 0.000000
							CHANNELS 3 Zrotation Yrotation Xrotation
							JOINT LeftHand
							{
								OFFSET 3.450000 0.000000 0.000000
								CHANNELS 3 Zrotation Yrotation Xrotation
								JOINT LeftHandIndex1
								{
									OFFSET 0.750000 0.000000 0.000000
									CHANNELS 3 Zrotation Yrotation Xrotation
									End Site
									{
										OFFSET 0.000000 0.000000 0.000000
									}
								}
							}
						}
					}
				}
				JOINT RightShoulder
				{
					OFFSET 0.000000 0.000000 0.000000
					CHANNELS 3 Zrotation Yrotation Xrotation
					JOINT RightArm
					{
						OFFSET -2.700000 1.550000 -0.730000
						CHANNELS 3 Zrotation Yrotation Xrotation
						JOINT RightForeArm
						{
							OFFSET -5.450000 0.000000 0.000000
							CHANNELS 3 Zrotation Yrotation Xrotation
							JOINT RightHand
							{
								OFFSET -3.450000 0.000000 0.000000
								CHANNELS 3 Zrotation Yrotation Xrotation
								JOINT RightHandIndex1
								{
									OFFSET -0.750000 0.000000 0.000000
									CHANNELS 3 Zrotation Yrotation Xrotation
									End Site
									{
										OFFSET 0.000000 0.000000 0.000000
									}
								}
							}
						}
					}
				}
			}
		}
	}
}
MOTION
Frames: 9
Frame Time: 0.016667
1.552710 17.222180 -0.720190 -6.478921 -21.393512 7.599155 -15.437048 13.521727 3.142875 -0.557989 -0.111288 -5.259235 -8.332739 4.701001 3.847459 -0.186660 4.447733 3.431790 0.362750 -0.061940 0.222330 18.163303 -9.810037 3.056635 6.086492 3.291513 -20.081104 4.935626 -3.686264 11.131556 -0.180288 -2.540752 3.533343 -0.029930 0.658710 0.779190 -2.870986 -3.566724 -7.326999 6.116456 -2.581540 5.707986 -1.110539 -2.751842 3.455771 3.083196 -2.821281 -9.162405 -6.183863 11.253977 27.242589 -3.589240 11.419510 -4.215470 -18.217752 -7.734068 2.943924 -48.429304 -10.939188 0.274181 -0.234455 -16.756217 -1.527486 -4.116539 3.071707 0.469160 0.493670 0.064810 0.448280 12.978935 8.433154 5.825211 49.194429 1.190396 -7.938654 9.467021 26.687381 0.365596 2.068764 -1.583877 -0.113090 0.030060 -0.089580 -0.021660 
1.560920 17.232450 -0.732110 -6.697850 -21.693428 7.504901 -15.440428 13.562929 3.162301 -0.348413 -0.113498 -5.215491 -8.571575 4.752238 3.849336 -0.170687 4.460342 3.415894 0.389100 -0.029940 0.237910 18.151765 -9.787196 3.058132 5.867670 3.286133 -20.068630 5.273793 -3.748158 11.130295 -0.199891 -2.537819 3.525263 -0.021600 0.633010 0.785560 -2.842673 -3.681236 -7.371594 6.232785 -2.778177 6.158626 -0.927649 -2.922302 3.336991 3.034301 -2.948868 -9.235178 -6.530164 11.342541 27.639271 -3.426940 11.371650 -4.734520 -18.270457 -7.867896 2.937265 -47.465171 -11.251863 0.437253 1.054476 -16.295923 -1.642586 -4.096475 3.080121 0.479290 0.472700 0.089250 0.453340 13.143375 8.586650 5.898646 47.858279 0.998105 -7.874928 8.543924 26.782288 0.295273 2.071451 -1.581320 -0.093840 0.020010 -0.105340 -0.018490 
1.565000 17.251680 -0.751920 -6.731123 -22.458365 7.211648 -15.463915 13.638709 3.204000 -0.296355 -0.067872 -4.947555 -8.609851 4.746316 3.633518 -0.169012 4.469818 3.403021 0.419560 0.006940 0.256320 18.117993 -9.757376 3.040262 5.433888 3.198372 -19.964223 5.182348 -3.694104 10.849512 -0.214295 -2.493866 3.539305 -0.005200 0.603440 0.780070 -2.741745 -3.881195 -7.431516 5.737056 -2.981400 6.789582 -0.208803 -3.126091 3.094423 2.798691 -3.220455 -9.264906 -7.242067 11.472950 28.387193 -3.350570 11.270780 -5.590410 -18.351186 -7.821745 2.872133 -45.730398 -11.583050 0.670763 3.120853 -15.459225 -1.815091 -4.074660 3.063444 0.504530 0.445860 0.116530 0.459640 13.772151 8.706020 5.911762 45.049309 0.849402 -7.495274 7.226253 26.393294 0.227183 2.070798 -1.557199 -0.086640 0.026080 -0.121640 -0.022230 
1.571620 17.268070 -0.781880 -6.830825 -23.167912 6.969654 -15.481155 13.703159 3.233374 -0.206659 -0.064289 -4.853390 -8.528559 4.718429 3.547102 -0.158922 4.438640 3.394133 0.472400 0.068750 0.300660 18.088703 -9.742126 3.030545 4.980720 3.123935 -19.998929 4.979546 -3.575617 10.362067 -0.235054 -2.423665 3.546526 0.017760 0.550920 0.783940 -2.654448 -4.028514 -7.487630 5.194670 -3.216529 7.476217 0.429854 -3.382162 2.980640 2.583870 -3.212807 -9.253033 -7.417408 11.418470 29.222351 -3.219340 11.189760 -6.614770 -18.140237 -7.815474 2.839862 -43.667760 -12.055779 0.788747 5.830576 -14.740687 -2.054142 -4.043256 3.073475 0.521170 0.408760 0.157860 0.463320 14.046339 8.679423 5.793519 42.474885 1.167826 -6.890692 5.152138 25.162744 -0.010791 2.094610 -1.545620 -0.057970 0.010820 -0.155740 -0.024930 
1.579570 17.279460 -0.816410 -6.977792 -24.066025 6.961778 -15.493205 13.733368 3.241296 -0.196264 -0.101251 -5.035030 -8.297481 4.639378 3.522894 -0.163276 4.384874 3.394871 0.524160 0.133940 0.335770 18.068478 -9.734887 3.032104 4.520685 3.115119 -20.362707 4.833521 -3.436669 9.645924 -0.248689 -2.359260 3.552148 0.047320 0.517160 0.809800 -2.592510 -4.087808 -7.515663 4.676127 -3.443287 8.032837 0.969007 -3.669038 2.807245 2.439022 -2.858106 -8.936364 -6.784931 11.164844 29.611997 -3.561810 11.281870 -7.476490 -17.809002 -7.333128 2.595553 -40.889409 -12.525882 0.840982 7.980822 -14.391729 -2.222521 -4.042586 3.096000 0.520140 0.399950 0.192770 0.475490 14.041087 7.948937 5.318316 39.869432 1.989785 -6.126006 3.209181 24.105977 -0.208030 2.107557 -1.555935 -0.025120 -0.012170 -0.187290 -0.021540 
1.587280 17.281600 -0.845000 -7.508358 -25.147928 7.302746 -15.486478 13.701263 3.234784 0.121004 -0.160283 -5.225312 -8.349092 4.566935 3.195825 -0.137336 4.331077 3.404492 0.578720 0.219430 0.358220 18.075437 -9.721861 3.064595 4.520884 3.203343 -20.868582 4.559217 -3.201686 8.568294 -0.250108 -2.282030 3.576110 0.087530 0.494470 0.825760 -2.612345 -4.028062 -7.539619 4.892719 -3.579900 8.403995 1.308820 -3.843335 2.564378 2.349439 -2.378503 -8.512281 -5.838982 10.576838 29.607568 -3.709760 11.061550 -7.658520 -17.419863 -6.592080 2.198072 -37.919317 -13.090852 0.914210 9.653862 -13.966184 -2.274338 -4.044455 3.130884 0.484390 0.402810 0.216370 0.503670 13.821513 6.871033 4.817280 37.080269 2.427273 -5.544243 1.177062 23.725921 -0.427587 2.120222 -1.596910 0.015790 -0.035900 -0.236820 0.000970 
1.591710 17.283330 -0.869410 -7.540323 -26.139028 7.626618 -15.493582 13.655855 3.216370 -0.311972 -0.184110 -5.582826 -7.928730 4.421729 3.119251 -0.118139 4.212559 3.432051 0.616540 0.294120 0.356720 18.072857 -9.722248 3.080677 3.986681 3.164620 -21.411718 4.497584 -2.953702 6.811691 -0.244608 -2.224714 3.590145 0.120470 0.487940 0.851200 -2.600989 -3.929874 -7.523323 4.321768 -3.714901 8.313325 1.736560 -4.132962 2.512101 2.226986 -1.573511 -8.164539 -4.242313 9.933380 29.269387 -3.654820 10.855170 -7.447600 -16.683857 -6.049523 2.061927 -34.909960 -13.033293 0.709596 11.550638 -13.886460 -2.365362 -4.054804 3.191091 0.430930 0.418840 0.229740 0.531760 13.373815 5.797411 4.256574 35.136958 3.184507 -4.978408 -1.490095 22.815739 -0.805282 2.142417 -1.646869 0.061460 -0.068340 -0.272370 0.034330 
1.593060 17.279340 -0.889180 -7.486119 -27.149625 8.055915 -15.501313 13.566607 3.180840 -0.673772 -0.248837 -5.951374 -7.714642 4.315520 3.066675 -0.126569 4.148931 3.463319 0.659680 0.353890 0.376070 18.078014 -9.717457 3.094522 3.287840 3.192593 -22.240629 4.718456 -2.742500 5.223768 -0.225270 -2.203958 3.596049 0.171450 0.505580 0.859470 -2.614563 -3.759222 -7.463011 3.650129 -3.720938 7.784764 2.146826 -4.331836 2.562645 2.013443 -0.596940 -7.623067 -2.348868 9.103578 28.527511 -3.397900 10.361020 -6.674990 -15.675861 -5.277644 1.735991 -31.593509 -13.495592 0.878245 12.228517 -13.392879 -2.265238 -4.087969 3.226322 0.376260 0.452340 0.212930 0.561710 12.839954 4.351306 3.524544 33.223094 4.186534 -4.250001 -3.692645 21.623474 -1.147591 2.158070 -1.709061 0.072370 -0.076330 -0.313060 0.052140 
1.600340 17.273970 -0.905750 -7.631385 -28.077727 8.511745 -15.493445 13.463852 3.153183 -0.777922 -0.308041 -6.218765 -7.778955 4.230358 2.782089 -0.164342 4.121372 3.485679 0.708070 0.428020 0.381420 18.098717 -9.704340 3.119393 2.677973 3.267699 -23.150769 4.927804 -2.538397 3.810712 -0.206876 -2.192116 3.605400 0.245790 0.533070 0.842580 -2.685067 -3.577050 -7.420312 3.629891 -3.832759 7.458400 2.291031 -4.531908 2.517662 1.750484 0.021137 -7.076480 -1.148575 8.367077 27.672871 -2.784630 9.419010 -6.407790 -14.679471 -4.400259 1.319738 -28.302729 -13.981145 1.134752 12.547013 -12.555022 -2.110403 -4.109861 3.231773 0.343310 0.477850 0.191010 0.600050 12.380458 3.047163 2.811073 30.734070 5.362887 -3.404148 -5.069836 20.214885 -1.341832 2.163727 -1.752867 0.056130 -0.048500 -0.349900 0.069370 
